#N canvas 479 22 1073 623 10;
#X floatatom 39 31 5 0 127 2 Pitch pitch -;
#X obj 37 75 t f b;
#X obj 38 121 mtof;
#X floatatom 36 168 5 0 0 0 - - -;
#X obj 38 212 osc~;
#X obj 34 427 *~;
#X obj 33 497 dac~;
#X floatatom 165 37 5 0 127 2 Velocity velocity -;
#X floatatom 291 34 5 0 5000 2 Duration duration -;
#X floatatom 121 226 5 0 0 0 - - -;
#X obj 249 118 del 1000;
#X obj 250 169 t 0;
#X obj 33 460 hip~ 5;
#X obj 122 151 expr $f1/127*100;
#X obj 122 184 * 0.01;
#X obj 123 114 f 127;
#X obj 120 266 sel 0;
#X obj 120 303 bng 15 250 50 0 empty empty empty 17 7 0 10 -262144
-1 -1;
#X obj 119 401 line~;
#X obj 6 -2 bng 15 250 50 0 pitch bang empty 17 7 0 10 -262144 -1 -1
;
#X obj 150 484 snapshot~;
#X floatatom 150 525 5 0 0 0 - - -;
#X obj 214 453 metro 10;
#X obj 227 421 tgl 15 0 empty empty empty 17 7 0 10 -262144 -1 -1 0
1;
#X obj 118 338 pack 0 200;
#X obj 209 337 pack 1 100;
#X floatatom 209 290 5 0 0 0 - - -;
#X floatatom 180 266 5 0 5000 2 Release release -;
#X floatatom 266 268 5 0 3000 2 Attack attack -;
#X floatatom 356 307 5 0 100 2 Sustain(level) sustain -;
#X obj 353 396 * 0.01;
#X floatatom 425 337 5 0 4000 2 Decay(time) decay -;
#X obj 294 336 del 50;
#X obj 348 454 pack f 100;
#X obj 356 363 f 1;
#X obj 350 426 *;
#X obj 209 313 t f b t;
#X connect 0 0 1 0;
#X connect 1 0 2 0;
#X connect 1 1 10 0;
#X connect 1 1 15 0;
#X connect 2 0 3 0;
#X connect 3 0 4 0;
#X connect 4 0 5 0;
#X connect 5 0 12 0;
#X connect 7 0 15 1;
#X connect 8 0 10 1;
#X connect 9 0 16 0;
#X connect 10 0 11 0;
#X connect 11 0 9 0;
#X connect 12 0 6 0;
#X connect 12 0 6 1;
#X connect 13 0 14 0;
#X connect 14 0 9 0;
#X connect 15 0 13 0;
#X connect 16 0 17 0;
#X connect 16 1 26 0;
#X connect 17 0 24 0;
#X connect 18 0 5 1;
#X connect 18 0 20 0;
#X connect 20 0 21 0;
#X connect 22 0 20 0;
#X connect 23 0 22 0;
#X connect 24 0 18 0;
#X connect 25 0 18 0;
#X connect 26 0 36 0;
#X connect 27 0 24 1;
#X connect 28 0 25 1;
#X connect 28 0 32 1;
#X connect 29 0 34 0;
#X connect 30 0 35 0;
#X connect 31 0 33 1;
#X connect 32 0 34 0;
#X connect 33 0 18 0;
#X connect 34 0 30 0;
#X connect 35 0 33 0;
#X connect 36 0 25 0;
#X connect 36 1 32 0;
#X connect 36 2 35 1;
